<svg width="70" height="70" viewBox="0 0 16 15.2"><path fill="#5865F2" fill-rule="evenodd" d="M16 7.6c0 .79-1.28 1.38-1.52 2.09s.44 2 0 2.59-1.84.35-2.46.8-.79 1.84-1.54 2.09-1.67-.8-2.47-.8-1.75 1-2.47.8-.92-1.64-1.54-2.09-2-.18-2.46-.8.23-1.84 0-2.59S0 8.39 0 7.6s1.28-1.38 1.52-2.09-.44-2 0-2.59 1.85-.35 2.48-.8S4.78.28 5.53 0 7.2.83 8 .83s1.75-1 2.47-.8.91 1.64 1.53 2.09 2 .18 2.46.8-.23 1.84 0 2.59S16 6.81 16 7.6z"></path><path d="M10.59 6.4l-1.398.9c-.2.1-.3.1-.5 0-.1-.1-.299-.2-.399-.3-.4-.1-.699 0-.999.2l-.499.3-2.497 1.7c-.6.3-1.299.2-1.598-.4-.4-.5-.2-1.2.3-1.6l2.996-2c.799-.5 1.798-.7 2.697-.5.799.2 1.398.6 1.898 1.2.2.2.1.4 0 .5zM13.487 7.8c0 .4-.2.8-.5 1l-3.096 2c-.599.4-1.198.6-1.897.6-.3 0-.5 0-.8-.1-.799-.2-1.398-.6-1.897-1.2-.1-.2 0-.4.1-.5l1.398-.9c.1-.1.3-.1.4 0 .2.1.399.2.499.3.4 0 .7 0 .999-.2l.699-.4L11.39 7l.3-.2c.499-.3 1.298-.2 1.597.3.2.3.2.5.2.7z" fill="#fff"></path></svg>